<?xml version="1.0" encoding="utf-8"?>
<!-- Generator: Adobe Illustrator 22.1.0, SVG Export Plug-In . SVG Version: 6.00 Build 0)  -->
<svg version="1.1" id="Regular" xmlns="http://www.w3.org/2000/svg" xmlns:xlink="http://www.w3.org/1999/xlink" x="0px" y="0px"
	 viewBox="0 0 24 24" style="enable-background:new 0 0 24 24;" xml:space="preserve">
<title>beer-mug</title>
<g>
	<path d="M5.1,23.999c-1.178-0.02-2.117-0.986-2.1-2.154V10.06C2.343,9.866,1.745,9.517,1.256,9.038
		C0.458,8.257,0.012,7.212,0,6.095c-0.012-1.117,0.412-2.171,1.193-2.969C1.974,2.328,3.02,1.882,4.136,1.87l0.072-0.001
		c0.73,0,1.436,0.192,2.066,0.56c0.514-0.908,1.31-1.624,2.279-2.04c0.606-0.26,1.243-0.392,1.893-0.392
		c0.608,0,1.206,0.116,1.778,0.344c0.94,0.375,1.712,1.01,2.25,1.847c0.142-0.059,0.288-0.109,0.435-0.152
		c0.378-0.109,0.768-0.165,1.158-0.165c1.852,0,3.504,1.242,4.018,3.02c0.126,0.438,0.181,0.891,0.164,1.346
		c-0.1,1.3-1.025,2.373-2.25,2.676v0.086h1.35c0.045-0.002,0.106-0.003,0.166-0.003c2.373,0,4.384,1.939,4.483,4.322l0,1.831
		c-0.101,2.448-2.08,4.353-4.504,4.353c-0.058,0-0.115-0.001-0.174-0.003l-1.322,0v2.356c0.019,1.16-0.918,2.125-2.087,2.144
		c-0.002,0-0.004,0-0.006,0H5.1z M4.5,21.856c-0.005,0.351,0.27,0.637,0.613,0.643H15.9c0.333-0.006,0.606-0.289,0.6-0.632V9.003
		c-0.311,0.001-0.633,0.001-0.961,0.001L11.978,9c-0.386,0-0.708,0.295-0.74,0.672c-0.053,0.573-0.223,1.114-0.506,1.609
		c-0.645,1.221-1.865,2.049-3.259,2.202c-0.1,0.008-0.176,0.012-0.251,0.014l-0.094,0.001c-0.963,0-1.893-0.345-2.626-0.952V21.856z
		 M19.35,17.999c0.056,0.002,0.096,0.003,0.137,0.003c1.623,0,2.946-1.267,3.013-2.884l0-1.769
		c-0.066-1.566-1.415-2.853-3.008-2.853c-0.038,0-0.076,0.001-0.114,0.002l-1.379,0v7.5H19.35z M3.896,8.721
		C3.954,8.733,4.01,8.75,4.061,8.774C4.087,8.785,4.114,8.8,4.141,8.817c0.035,0.022,0.066,0.045,0.096,0.07
		c0.046,0.038,0.089,0.085,0.128,0.14c0.093,0.134,0.139,0.269,0.142,0.41c0.032,1.412,1.207,2.561,2.619,2.561l0.06-0.001
		c0.048-0.001,0.096-0.003,0.145-0.007c0.88-0.097,1.664-0.633,2.086-1.432c0.186-0.326,0.294-0.665,0.326-1.018
		C9.84,8.398,10.818,7.5,11.969,7.5l3.585,0.003c0.595,0,1.169-0.001,1.698-0.003l0.034,0c0.763,0,1.407-0.593,1.466-1.35
		c0.009-0.268-0.028-0.565-0.108-0.844c-0.329-1.139-1.389-1.935-2.576-1.935c-0.25,0-0.5,0.036-0.742,0.105
		c-0.265,0.077-0.515,0.193-0.744,0.346c-0.123,0.083-0.267,0.126-0.416,0.126c-0.073,0-0.144-0.01-0.214-0.031
		c-0.214-0.063-0.387-0.217-0.476-0.423c-0.348-0.809-0.99-1.434-1.808-1.761c-0.394-0.157-0.805-0.237-1.222-0.237
		c-0.447,0-0.884,0.091-1.301,0.27C8.257,2.149,7.583,2.897,7.297,3.82C7.22,4.068,7.016,4.262,6.765,4.326
		C6.705,4.341,6.643,4.349,6.581,4.349c-0.198,0-0.384-0.076-0.525-0.214C5.552,3.641,4.891,3.369,4.194,3.369l-0.04,0
		C3.436,3.377,2.766,3.663,2.265,4.175C1.764,4.687,1.493,5.363,1.5,6.079c0.008,0.716,0.294,1.386,0.806,1.887
		c0.414,0.406,0.96,0.67,1.536,0.743C3.858,8.712,3.877,8.716,3.896,8.721z"/>
	<path d="M8.25,19.826c-0.414,0-0.75-0.336-0.75-0.75v-4.178c0-0.414,0.336-0.75,0.75-0.75S9,14.484,9,14.898v4.178
		C9,19.489,8.664,19.826,8.25,19.826z"/>
	<path d="M12.75,19.826c-0.414,0-0.75-0.336-0.75-0.75v-6.267c0-0.414,0.336-0.75,0.75-0.75s0.75,0.336,0.75,0.75v6.267
		C13.5,19.489,13.164,19.826,12.75,19.826z"/>
</g>
</svg>
