<svg id="ICON_Outlined_" data-name="ICON (Outlined)" xmlns="http://www.w3.org/2000/svg" viewBox="0 0 24 24"><defs><style>.cls-1{fill:#001e41;}</style></defs><title>chevron-down copy 44</title><path class="cls-1" d="M16.14,8.93a1.84,1.84,0,0,0-1.07-1.07,3.42,3.42,0,0,0-1-.19c-.55,0-.71,0-2.09,0s-1.55,0-2.1,0a3.42,3.42,0,0,0-1,.19A1.84,1.84,0,0,0,7.79,8.93a3.42,3.42,0,0,0-.19,1c0,.55,0,.71,0,2.09s0,1.55,0,2.1a3.42,3.42,0,0,0,.19,1,1.84,1.84,0,0,0,1.07,1.07,3.42,3.42,0,0,0,1,.19c.55,0,.71,0,2.1,0s1.54,0,2.09,0a3.34,3.34,0,0,0,1-.19,1.84,1.84,0,0,0,1.07-1.07,3.42,3.42,0,0,0,.19-1c0-.55,0-.71,0-2.1s0-1.54,0-2.09A3.34,3.34,0,0,0,16.14,8.93ZM12,14.52A2.49,2.49,0,1,1,14.45,12,2.48,2.48,0,0,1,12,14.52Zm2.75-4.73a.51.51,0,1,1,.51-.51A.51.51,0,0,1,14.72,9.79Z"/><circle class="cls-1" cx="11.97" cy="12.03" r="1.88"/><path class="cls-1" d="M12,2A10,10,0,1,0,22,12,10,10,0,0,0,12,2Zm5,12.13a3.83,3.83,0,0,1-.22,1.2,2.61,2.61,0,0,1-.56.86,2.44,2.44,0,0,1-.86.55,3.51,3.51,0,0,1-1.2.23c-.55,0-.73,0-2.12,0s-1.58,0-2.12,0a3.57,3.57,0,0,1-1.21-.23,2.38,2.38,0,0,1-1.41-1.41A3.56,3.56,0,0,1,7,14.16c0-.55,0-.74,0-2.13s0-1.57,0-2.12a3.51,3.51,0,0,1,.23-1.2,2.44,2.44,0,0,1,.55-.86,2.61,2.61,0,0,1,.86-.56,3.84,3.84,0,0,1,1.21-.22c.54,0,.73,0,2.12,0s1.57,0,2.12,0a3.78,3.78,0,0,1,1.2.22,2.48,2.48,0,0,1,1.42,1.42,3.78,3.78,0,0,1,.22,1.2c0,.55,0,.73,0,2.12S17,13.61,16.93,14.16Z"/></svg>