<?xml version="1.0" encoding="utf-8"?>
<!-- Generator: Adobe Illustrator 22.1.0, SVG Export Plug-In . SVG Version: 6.00 Build 0)  -->
<svg version="1.1" id="Layer_1" xmlns="http://www.w3.org/2000/svg" xmlns:xlink="http://www.w3.org/1999/xlink" x="0px" y="0px"
	 viewBox="0 0 24 24" style="enable-background:new 0 0 24 24;" xml:space="preserve">
<title>maps-mark</title>
<g>
	<path d="M15.113,22.268c-0.525,0-1.037-0.109-1.522-0.324l-4.488-1.994c-0.284-0.126-0.6-0.193-0.915-0.193
		c-0.289,0-0.57,0.054-0.835,0.16l-4.267,1.707c-0.267,0.107-0.547,0.161-0.833,0.161c-0.927,0-1.748-0.555-2.091-1.415
		C0.054,20.102,0,19.821,0,19.533V6.265c0-0.926,0.555-1.746,1.414-2.089l5.381-2.152c0.442-0.177,0.911-0.267,1.392-0.267
		c0.524,0,1.051,0.111,1.524,0.322l4.487,1.994c0.291,0.129,0.598,0.195,0.913,0.195c0.262,0,0.521-0.046,0.77-0.137l5.1-1.855
		c0.248-0.09,0.506-0.136,0.768-0.136c0.944,0,1.794,0.595,2.116,1.481c0.09,0.247,0.136,0.506,0.136,0.77v13.308
		c0,0.942-0.595,1.792-1.481,2.114l-6.125,2.228C15.982,22.191,15.55,22.268,15.113,22.268z M8.188,18.256
		c0.523,0,1.05,0.111,1.524,0.322l4.488,1.994c0.291,0.13,0.598,0.195,0.913,0.195c0.262,0,0.521-0.046,0.77-0.137l6.125-2.228
		c0.295-0.107,0.493-0.391,0.493-0.705V4.39c0-0.088-0.015-0.174-0.046-0.257C22.349,3.838,22.065,3.64,21.75,3.64
		c-0.087,0-0.173,0.015-0.256,0.045l-5.1,1.855c-0.414,0.151-0.846,0.227-1.283,0.227c-0.526,0-1.038-0.109-1.522-0.324L9.102,3.449
		c-0.283-0.126-0.6-0.193-0.914-0.193c-0.289,0-0.57,0.054-0.836,0.16L1.972,5.568C1.685,5.682,1.5,5.956,1.5,6.264v13.269
		c0,0.096,0.018,0.19,0.054,0.279c0.115,0.286,0.389,0.471,0.698,0.471c0.095,0,0.188-0.018,0.277-0.053l4.267-1.707
		C7.238,18.346,7.706,18.256,8.188,18.256z"/>
	<path d="M12.375,12.748c-0.044,0-0.088-0.004-0.13-0.011c-0.513-0.06-0.922-0.469-0.983-0.982
		c-0.008-0.043-0.012-0.087-0.012-0.131s0.004-0.088,0.012-0.131c0.06-0.513,0.469-0.922,0.982-0.982
		c0.043-0.008,0.087-0.012,0.131-0.012s0.088,0.004,0.131,0.011c0.513,0.06,0.922,0.47,0.983,0.983
		c0.007,0.042,0.011,0.086,0.011,0.13s-0.004,0.088-0.011,0.13c-0.061,0.513-0.47,0.923-0.983,0.983
		C12.463,12.745,12.419,12.748,12.375,12.748z"/>
	<path d="M9.375,15.255c-0.044,0-0.088-0.004-0.13-0.011c-0.513-0.06-0.923-0.47-0.983-0.983C8.254,14.217,8.25,14.174,8.25,14.13
		s0.004-0.088,0.011-0.131c0.06-0.513,0.47-0.922,0.983-0.982c0.042-0.008,0.086-0.011,0.13-0.011s0.088,0.004,0.13,0.011
		c0.513,0.06,0.923,0.469,0.983,0.982c0.008,0.043,0.011,0.087,0.011,0.131s-0.004,0.088-0.011,0.131
		c-0.06,0.513-0.47,0.922-0.983,0.983C9.463,15.251,9.42,15.255,9.375,15.255z"/>
	<path d="M6.375,13.005c-0.044,0-0.088-0.004-0.13-0.011c-0.513-0.061-0.922-0.47-0.983-0.983c-0.008-0.043-0.012-0.087-0.012-0.131
		s0.004-0.088,0.012-0.131c0.06-0.513,0.47-0.922,0.982-0.982c0.043-0.008,0.087-0.012,0.131-0.012s0.088,0.004,0.131,0.012
		c0.513,0.06,0.922,0.47,0.982,0.982C7.496,11.792,7.5,11.836,7.5,11.879s-0.004,0.088-0.012,0.131
		c-0.061,0.513-0.47,0.922-0.983,0.983C6.463,13.001,6.42,13.005,6.375,13.005z"/>
	<path d="M4.125,16.005c-0.044,0-0.088-0.004-0.13-0.011c-0.513-0.06-0.923-0.47-0.983-0.983C3.004,14.967,3,14.924,3,14.88
		s0.004-0.088,0.011-0.131c0.06-0.513,0.47-0.922,0.983-0.982c0.042-0.008,0.086-0.011,0.13-0.011s0.088,0.004,0.13,0.011
		c0.513,0.06,0.923,0.469,0.983,0.982c0.008,0.043,0.011,0.087,0.011,0.131s-0.004,0.088-0.011,0.131
		c-0.06,0.513-0.47,0.922-0.983,0.983C4.213,16.001,4.17,16.005,4.125,16.005z"/>
	<path d="M20.25,13.498c-0.2,0-0.389-0.078-0.53-0.22L18,11.559l-1.72,1.72c-0.142,0.142-0.33,0.22-0.53,0.22
		s-0.389-0.078-0.53-0.22c-0.292-0.292-0.292-0.768,0-1.061l1.72-1.72l-1.72-1.72C15.078,8.637,15,8.449,15,8.248
		s0.078-0.389,0.22-0.53s0.33-0.22,0.53-0.22s0.389,0.078,0.53,0.22L18,9.438l1.72-1.72c0.142-0.142,0.33-0.22,0.53-0.22
		s0.389,0.078,0.53,0.22C20.922,7.86,21,8.048,21,8.248s-0.078,0.389-0.22,0.53l-1.72,1.72l1.72,1.72
		c0.292,0.292,0.292,0.768,0,1.061C20.639,13.42,20.45,13.498,20.25,13.498z"/>
</g>
</svg>
