<?xml version="1.0" encoding="utf-8"?>
<!-- Generator: Adobe Illustrator 22.1.0, SVG Export Plug-In . SVG Version: 6.00 Build 0)  -->
<svg version="1.1" id="Layer_1" xmlns="http://www.w3.org/2000/svg" xmlns:xlink="http://www.w3.org/1999/xlink" x="0px" y="0px"
	 viewBox="0 0 24 24" style="enable-background:new 0 0 24 24;" xml:space="preserve">
<title>style-one-pin-car</title>
<g>
	<path d="M12.25,24c-0.308,0-0.59-0.193-0.7-0.481l-1.656-4.307C5.598,18.14,2.5,14.194,2.5,9.752c0-2.604,1.014-5.053,2.855-6.895
		c1.841-1.842,4.29-2.856,6.894-2.856C17.626,0.001,22,4.374,22,9.75c0,4.443-3.097,8.39-7.394,9.462l-1.656,4.308
		C12.84,23.807,12.558,24,12.25,24z M12.249,1.501c-2.2,0-4.271,0.86-5.831,2.42C4.859,5.481,4,7.552,4,9.752
		c0,3.903,2.776,7.302,6.6,8.082c0.252,0.052,0.458,0.226,0.55,0.466l1.1,2.86l1.1-2.86c0.093-0.24,0.298-0.414,0.55-0.466
		c3.825-0.781,6.6-4.18,6.6-8.084C20.5,5.201,16.799,1.501,12.249,1.501V1.126V1.501z"/>
	<path d="M15.25,13.5c-0.414,0-0.75-0.336-0.75-0.75V12H10v0.75c0,0.414-0.336,0.75-0.75,0.75S8.5,13.164,8.5,12.75v-0.879
		C7.615,11.558,7,10.71,7,9.75s0.615-1.808,1.5-2.121V6.25c0-0.965,0.785-1.75,1.75-1.75h4C15.215,4.5,16,5.285,16,6.25v1.379
		c0.885,0.314,1.5,1.162,1.5,2.121s-0.615,1.808-1.5,2.121v0.879C16,13.164,15.664,13.5,15.25,13.5z M9.25,9
		C8.836,9,8.5,9.336,8.5,9.75s0.336,0.75,0.75,0.75h6c0.414,0,0.75-0.336,0.75-0.75S15.664,9,15.25,9H9.25z M14.5,7.5V6.25
		C14.5,6.112,14.388,6,14.25,6h-4C10.112,6,10,6.112,10,6.25V7.5H14.5z"/>
</g>
</svg>
